<?xml version="1.0" encoding="UTF-8"?>
<svg id="Layer_1" data-name="Layer 1" xmlns="http://www.w3.org/2000/svg" viewBox="0 0 44.99 63.03">
  <defs>
    <style>
      .cls-1 {
        fill: #202426;
      }
    </style>
  </defs>
  <path class="cls-1" d="M43.99,1v56.06c-2.62.54-4.12,2.69-4.44,4.96H1V1h42.99M44.99,0H0v63.03h40.49c-.04-2.45,1.46-4.92,4.5-5.09V0h0Z"/>
  <g>
    <g>
      <path d="M1.5,24.48V2.92h3.97v8.99L13.98,2.92h5.54l-10.33,10.75,10.3,10.82h-5.66L5.47,15.43v9.06H1.5ZM3.1,26.18l-1.6-1.28h4.38v-8.42l1.6,1.82v7.87H3.1ZM4.99,24v-9.76l9.06,9.76h4.32l-9.85-10.34L18.37,3.4h-4.16L4.99,13.12V3.4H1.98v20.61h3.01ZM4.45,3.94l.1.16-.1.16h-.86l-1.06.13-.16-.29.16-.16h1.92ZM3.59,4.81h.86l.1.16-.1.16h-.86l-1.06.13-.16-.29.16-.29,1.06.13ZM3.59,5.67h.86l.1.16-.1.16h-.86l-1.06.13-.16-.29.16-.29,1.06.13ZM3.59,6.57h.86l.1.16-.1.16h-.86l-1.06.13-.16-.29.16-.29,1.06.13ZM3.59,7.43h.86l.1.16-.1.16h-.86l-1.06.13-.16-.29.16-.29,1.06.13ZM3.59,8.29h.86l.1.16-.1.16h-.86l-1.06.13-.16-.29.16-.29,1.06.13ZM3.59,9.19h.86l.1.16-.1.16h-.86l-1.06.13-.16-.29.16-.29,1.06.13ZM3.59,10.05h.86l.1.16-.1.16h-.86l-1.06.16-.16-.32.16-.29,1.06.13ZM3.59,10.92h.86l.1.16-.1.16h-.86l-1.06.13-.16-.29.16-.29,1.06.13ZM3.59,11.81h.86l.1.16-.1.16h-.86l-1.06.13-.16-.29.16-.26,1.06.1ZM3.59,12.68h.86l.1.16-.1.16h-.86l-1.06.13-.16-.29.16-.29,1.06.13ZM3.59,13.54h4.29l.1.16-.1.16H3.59l-1.06.13-.16-.29.16-.29,1.06.13ZM3.59,14.44h.86l.1.16-.1.16h-.86l-1.06.13-.16-.29.16-.29,1.06.13ZM3.59,15.3h.86l.1.16-.1.16h-.86l-1.06.13-.16-.29.16-.29,1.06.13ZM3.59,16.16h.86l.1.16-.1.16h-.86l-1.06.13-.16-.29.16-.29,1.06.13ZM3.59,17.06h.86l.1.16-.1.16h-.86l-1.06.13-.16-.29.16-.29,1.06.13ZM3.59,17.92h.86l.1.16-.1.16h-.86l-1.06.13-.16-.29.16-.29,1.06.13ZM3.59,18.79h.86l.1.16-.1.16h-.86l-1.06.13-.16-.29.16-.29,1.06.13ZM3.59,19.68h.86l.1.16-.1.16h-.86l-1.06.13-.16-.29.16-.29,1.06.13ZM3.59,20.55h.86l.1.16-.1.16h-.86l-1.06.16-.16-.32.16-.29,1.06.13ZM3.59,21.41h.86l.1.16-.1.16h-.86l-1.06.13-.16-.29.16-.29,1.06.13ZM3.59,22.28h.86l.1.16-.1.16h-.86l-1.06.13-.16-.29.16-.29,1.06.13ZM3.59,23.14h.86l.1.16-.1.16h-1.92l-.16-.16.16-.29,1.06.13ZM5.79,13l-.1-.16.1-.16h2.94l.1.16-.1.16h-2.94ZM5.86,14.76l-.1-.16.1-.16h2.98l.1.16-.1.16h-2.98ZM7.49,9.16l-1.6,1.7V2.92l1.6,1.28v4.96ZM6.62,12.13l-.1-.16.1-.16h2.91l.1.16-.1.16h-2.91ZM6.66,15.62l-.1-.16.1-.16h2.98l.1.16-.1.16h-2.98ZM7.49,11.24l-.1-.16.1-.16h2.91l.1.16-.1.16h-2.91ZM7.49,16.48l-.1-.16.1-.16h2.98l.1.16-.1.16h-2.98ZM8.29,10.37l-.1-.16.1-.16h2.94l.1.16-.1.16h-2.94ZM8.32,17.38l-.1-.16.1-.16h3.01l.1.16-.1.16h-3.01ZM9.12,9.51l-.1-.16.1-.16h2.91l.1.16-.1.16h-2.91ZM9.12,18.24l-.1-.16.1-.16h3.04l.1.16-.1.16h-3.04ZM9.79,13.67L20.03,3.08l1.18.77-9.7,10.05,11.62,12.29h-7.3l-1.6-1.28h6.21l-10.66-11.23ZM9.95,19.11l-.1-.16.1-.16h3.07l.1.16-.1.16h-3.07ZM9.98,8.61l-.1-.16.1-.16h2.94l.1.16-.1.16h-2.94ZM10.78,7.75l-.1-.16.1-.16h2.94l.1.16-.1.16h-2.94ZM10.78,20l-.1-.16.1-.16h3.07l.1.16-.1.16h-3.07ZM11.58,20.87l-.1-.16.1-.16h3.1l.1.16-.1.16h-3.1ZM11.62,6.89l-.1-.16.1-.16h2.94l.1.16-.1.16h-2.94ZM12.38,21.73l-.1-.16.1-.16h3.1l.1.16-.1.16h-3.1ZM12.42,5.99l-.1-.16.1-.16h3.01l.1.16-.1.16h-3.01ZM13.22,22.6l-.1-.16.1-.16h3.14l.1.16-.1.16h-3.14ZM13.25,5.13l-.1-.16.1-.16h3.01l.1.16-.1.16h-3.01ZM14.05,23.46l-.1-.16.1-.16h3.1l.1.16-.1.16h-3.1ZM14.11,4.26l-.1-.16.1-.16h2.94l.1.16-.1.16h-2.94Z"/>
      <path d="M29.63,24.48v-9.86L21.31,2.92h5.06l5.31,7.62,5.15-7.62h5.12l-8.35,11.74v9.82h-3.97ZM33.12,24v-9.54l7.87-11.07h-3.94l-5.38,7.97-5.57-7.97h-3.84l7.84,11.07v9.54h3.01ZM26.02,3.94l.1.16-.1.16h-1.54l-1.06.13-.16-.29.16-.16h2.59ZM25.09,4.81h1.54l.1.16-.1.16h-1.54l-1.06.13-.16-.29.16-.29,1.06.13ZM25.7,5.67h1.54l.1.16-.1.16h-1.54l-1.06.13-.16-.29.16-.29,1.06.13ZM26.34,6.57h1.54l.1.16-.1.16h-1.54l-1.06.13-.16-.29.16-.29,1.06.13ZM26.94,7.43h1.54l.1.16-.1.16h-1.54l-1.06.13-.16-.29.16-.29,1.06.13ZM27.55,8.29h1.54l.1.16-.1.16h-1.54l-1.06.13-.16-.29.16-.29,1.06.13ZM26.85,2.89l2.62,1.28,3.1,4.42-.86,1.25-4.86-6.94ZM28.19,9.19h1.5l.1.16-.1.16h-1.5l-1.06.13-.16-.29.16-.29,1.06.13ZM28.83,10.05h1.47l.1.16-.1.16h-1.47l-1.06.16-.16-.32.16-.29,1.06.13ZM29.41,10.92h1.5l.1.16-.1.16h-1.5l-1.06.13-.16-.29.16-.29,1.06.13ZM30.05,11.81h4.26l.1.16-.1.16h-4.26l-1.06.13-.16-.29.16-.26,1.06.1ZM30.66,12.68h3.04l.1.16-.1.16h-3.04l-1.06.13-.16-.29.16-.29,1.06.13ZM31.23,26.18l-1.6-1.28h4.38v-10.08l8.51-11.9.96,1.02-7.87,11.1v11.14h-4.38ZM31.26,13.54h1.82l.1.16-.1.16h-1.82l-1.06.13-.16-.29.16-.29,1.06.13ZM31.74,14.44h.86l.1.16-.1.16h-.86l-1.06.13-.16-.29.16-.29,1.06.13ZM31.74,15.3h.86l.1.16-.1.16h-.86l-1.06.13-.16-.29.16-.29,1.06.13ZM31.74,16.16h.86l.1.16-.1.16h-.86l-1.06.13-.16-.29.16-.29,1.06.13ZM31.74,17.06h.86l.1.16-.1.16h-.86l-1.06.13-.16-.29.16-.29,1.06.13ZM31.74,17.92h.86l.1.16-.1.16h-.86l-1.06.13-.16-.29.16-.29,1.06.13ZM31.74,18.79h.86l.1.16-.1.16h-.86l-1.06.13-.16-.29.16-.29,1.06.13ZM31.74,19.68h.86l.1.16-.1.16h-.86l-1.06.13-.16-.29.16-.29,1.06.13ZM31.74,20.55h.86l.1.16-.1.16h-.86l-1.06.16-.16-.32.16-.29,1.06.13ZM31.74,21.41h.86l.1.16-.1.16h-.86l-1.06.13-.16-.29.16-.29,1.06.13ZM31.74,22.28h.86l.1.16-.1.16h-.86l-1.06.13-.16-.29.16-.29,1.06.13ZM31.74,23.14h.86l.1.16-.1.16h-1.92l-.16-.16.16-.29,1.06.13ZM32.45,11.24l-.1-.16.1-.16h2.5l.1.16-.1.16h-2.5ZM33.02,10.37l-.1-.16.1-.16h2.53l.1.16-.1.16h-2.53ZM33.63,9.51l-.1-.16.1-.16h2.53l.1.16-.1.16h-2.53ZM34.21,8.61l-.1-.16.1-.16h2.59l.1.16-.1.16h-2.59ZM34.82,7.75l-.1-.16.1-.16h2.59l.1.16-.1.16h-2.59ZM35.39,6.89l-.1-.16.1-.16h2.62l.1.16-.1.16h-2.62ZM35.97,5.99l-.1-.16.1-.16h2.69l.1.16-.1.16h-2.69ZM36.58,5.13l-.1-.16.1-.16h2.69l.1.16-.1.16h-2.69ZM37.15,4.26l-.1-.16.1-.16h2.72l.1.16-.1.16h-2.72Z"/>
    </g>
    <g>
      <path d="M12.93,39.01v17.44h-3.97v-17.44H1.5v-4.13h18.88v4.13h-7.46ZM8.55,40.7H3.11l-1.6-1.28h7.04v1.28ZM19.9,38.53v-3.17H1.99v3.17h7.46v17.44h3.01v-17.44h7.46ZM19.39,35.9l.1.16-.1.16H3.62l-1.06.13-.16-.29.16-.16h16.83ZM3.62,36.77h15.77l.1.16-.1.16H3.62l-1.06.13-.16-.29.16-.29,1.06.13ZM3.62,37.63h15.77l.1.16-.1.16H2.56l-.16-.16.16-.29,1.06.13ZM14.94,40.7v17.44h-4.38l-1.6-1.28h4.38v-17.44h7.46v-4.54l1.6,1.28v4.54h-7.46ZM11.07,38.53h.86l.1.16-.1.16h-.86l-1.06.13-.16-.29.16-.29,1.06.13ZM11.07,39.39h.86l.1.16-.1.16h-.86l-1.06.13-.16-.29.16-.29,1.06.13ZM11.07,40.25h.86l.1.16-.1.16h-.86l-1.06.13-.16-.29.16-.29,1.06.13ZM11.07,41.15h.86l.1.16-.1.16h-.86l-1.06.13-.16-.29.16-.29,1.06.13ZM11.07,42.01h.86l.1.16-.1.16h-.86l-1.06.16-.16-.32.16-.29,1.06.13ZM11.07,42.88h.86l.1.16-.1.16h-.86l-1.06.13-.16-.29.16-.29,1.06.13ZM11.07,43.77h.86l.1.16-.1.16h-.86l-1.06.13-.16-.29.16-.26,1.06.1ZM11.07,44.64h.86l.1.16-.1.16h-.86l-1.06.13-.16-.29.16-.29,1.06.13ZM11.07,45.5h.86l.1.16-.1.16h-.86l-1.06.13-.16-.29.16-.29,1.06.13ZM11.07,46.4h.86l.1.16-.1.16h-.86l-1.06.13-.16-.29.16-.29,1.06.13ZM11.07,47.26h.86l.1.16-.1.16h-.86l-1.06.13-.16-.29.16-.29,1.06.13ZM11.07,48.13h.86l.1.16-.1.16h-.86l-1.06.13-.16-.29.16-.29,1.06.13ZM11.07,49.02h.86l.1.16-.1.16h-.86l-1.06.13-.16-.29.16-.29,1.06.13ZM11.07,49.88h.86l.1.16-.1.16h-.86l-1.06.13-.16-.29.16-.29,1.06.13ZM11.07,50.75h.86l.1.16-.1.16h-.86l-1.06.13-.16-.29.16-.29,1.06.13ZM11.07,51.64h.86l.1.16-.1.16h-.86l-1.06.13-.16-.29.16-.29,1.06.13ZM11.07,52.51h.86l.1.16-.1.16h-.86l-1.06.16-.16-.32.16-.29,1.06.13ZM11.07,53.37h.86l.1.16-.1.16h-.86l-1.06.13-.16-.29.16-.29,1.06.13ZM11.07,54.24h.86l.1.16-.1.16h-.86l-1.06.13-.16-.29.16-.29,1.06.13ZM11.07,55.1h.86l.1.16-.1.16h-1.92l-.16-.16.16-.29,1.06.13Z"/>
      <path d="M24.03,56.44v-21.57h14.37v4.13h-10.4v3.71h9.44v4.16h-9.44v5.47h11.04v4.1h-15.01ZM25.63,58.14l-1.6-1.28h15.42v-4.51l1.6,1.28v4.51h-15.42ZM38.56,55.96v-3.14h-11.04v-6.43h9.44v-3.2h-9.44v-4.67h10.4v-3.17h-13.41v20.61h14.05ZM37.38,35.9l.1.16-.1.16h-11.26l-1.06.13-.16-.29.16-.16h12.32ZM26.11,36.77h11.26l.1.16-.1.16h-11.26l-1.06.13-.16-.29.16-.29,1.06.13ZM26.11,37.63h11.26l.1.16-.1.16h-11.26l-1.06.13-.16-.29.16-.29,1.06.13ZM26.11,38.53h.86l.1.16-.1.16h-.86l-1.06.13-.16-.29.16-.29,1.06.13ZM26.11,39.39h.86l.1.16-.1.16h-.86l-1.06.13-.16-.29.16-.29,1.06.13ZM26.11,40.25h.86l.1.16-.1.16h-.86l-1.06.13-.16-.29.16-.29,1.06.13ZM26.11,41.15h.86l.1.16-.1.16h-.86l-1.06.13-.16-.29.16-.29,1.06.13ZM26.11,42.01h.86l.1.16-.1.16h-.86l-1.06.16-.16-.32.16-.29,1.06.13ZM26.11,42.88h.86l.1.16-.1.16h-.86l-1.06.13-.16-.29.16-.29,1.06.13ZM26.11,43.77h10.3l.1.16-.1.16h-10.3l-1.06.13-.16-.29.16-.26,1.06.1ZM26.11,44.64h10.3l.1.16-.1.16h-10.3l-1.06.13-.16-.29.16-.29,1.06.13ZM26.11,45.5h10.3l.1.16-.1.16h-10.3l-1.06.13-.16-.29.16-.29,1.06.13ZM26.11,46.4h.86l.1.16-.1.16h-.86l-1.06.13-.16-.29.16-.29,1.06.13ZM26.11,47.26h.86l.1.16-.1.16h-.86l-1.06.13-.16-.29.16-.29,1.06.13ZM26.11,48.13h.86l.1.16-.1.16h-.86l-1.06.13-.16-.29.16-.29,1.06.13ZM26.11,49.02h.86l.1.16-.1.16h-.86l-1.06.13-.16-.29.16-.29,1.06.13ZM26.11,49.88h.86l.1.16-.1.16h-.86l-1.06.13-.16-.29.16-.29,1.06.13ZM26.11,50.75h.86l.1.16-.1.16h-.86l-1.06.13-.16-.29.16-.29,1.06.13ZM26.11,51.64h.86l.1.16-.1.16h-.86l-1.06.13-.16-.29.16-.29,1.06.13ZM26.11,52.51h.86l.1.16-.1.16h-.86l-1.06.16-.16-.32.16-.29,1.06.13ZM26.11,53.37h11.93l.1.16-.1.16h-11.93l-1.06.13-.16-.29.16-.29,1.06.13ZM26.11,54.24h11.93l.1.16-.1.16h-11.93l-1.06.13-.16-.29.16-.29,1.06.13ZM26.11,55.1h11.93l.1.16-.1.16h-12.99l-.16-.16.16-.29,1.06.13ZM38.82,39.42v-4.54l1.6,1.28v4.54h-10.4v1.6h-1.6v-2.88h10.4ZM37.86,47.29v-4.58l1.6,1.28v4.58h-9.44v3.36h-1.6v-4.64h9.44Z"/>
    </g>
  </g>
</svg>