<?xml version="1.0" encoding="UTF-8"?>
<svg id="Layer_1" data-name="Layer 1" xmlns="http://www.w3.org/2000/svg" viewBox="0 0 44.99 63.03">
  <defs>
    <style>
      .cls-1 {
        fill: #202426;
      }
    </style>
  </defs>
  <path class="cls-1" d="M3.97,29.11V3.29h4.82v25.82H3.97ZM6.39,29.11v-4.69h6.13c1.58,0,2.81-.39,3.67-1.16s1.3-1.86,1.3-3.26v-7.6c0-1.41-.43-2.5-1.3-3.27s-2.09-1.15-3.67-1.15h-6.13V3.29h6.03c3.21,0,5.69.81,7.44,2.42s2.63,3.89,2.63,6.83v7.32c0,1.84-.38,3.45-1.12,4.84s-1.87,2.47-3.37,3.25-3.36,1.16-5.6,1.16h-6.01Z"/>
  <path class="cls-1" d="M3.97,59.87v-25.58h4.61v25.58H3.97ZM5.8,49.58v-4.64h8.52c.72,0,1.29-.28,1.73-.83s.65-1.28.67-2.18c0-.9-.22-1.63-.65-2.18s-1.01-.83-1.74-.83H5.8v-4.64h8.89c1.36,0,2.55.32,3.56.95s1.81,1.52,2.37,2.67.84,2.49.84,4.03-.28,2.88-.85,4.03-1.36,2.04-2.37,2.67-2.2.95-3.55.95H5.8ZM16.9,59.87l-5.95-11.07,4.94-.81,6.6,11.88h-5.59Z"/>
  <path class="cls-1" d="M33.51,59.99c-2.44,0-4.34-.67-5.68-2.01s-2.02-3.23-2.02-5.67v-.02c0-1.1.16-2.25.49-3.47s.77-2.41,1.34-3.58l5.35-10.95h5.62l-6.35,12.68-1.25-.63c.63-1.15,1.75-1.73,3.36-1.73,2.19,0,3.88.66,5.08,1.99s1.8,3.19,1.8,5.61v.02c0,2.46-.67,4.37-2.02,5.73s-3.25,2.04-5.7,2.04ZM33.51,55.37c.89,0,1.58-.25,2.05-.74s.71-1.2.71-2.11v-.02c0-1.04-.24-1.84-.71-2.41s-1.15-.86-2.05-.86-1.54.29-2.02.87-.72,1.38-.72,2.42v.02c0,.91.24,1.61.72,2.1s1.15.73,2.02.73Z"/>
  <path class="cls-1" d="M26.12,29.11v-4.34l8.77-11.53c.4-.52.71-1.05.92-1.59s.33-1.05.33-1.52v-.04c0-.69-.22-1.22-.67-1.6s-1.08-.56-1.9-.56-1.43.26-1.92.78-.8,1.26-.91,2.22v.02h-4.94v-.02c.16-2.43.94-4.31,2.33-5.64s3.19-2,5.41-2c2.4,0,4.26.58,5.58,1.74s1.98,2.8,1.98,4.92v.02c0,1.16-.2,2.31-.61,3.45s-.97,2.18-1.7,3.1l-6.29,7.95h8.74v4.64h-15.12Z"/>
  <path class="cls-1" d="M43.99,1v56.06c-2.62.54-4.12,2.69-4.44,4.96H1V1h42.99M44.99,0H0v63.03h40.49c-.04-2.45,1.46-4.92,4.5-5.09V0h0Z"/>
</svg>