<?xml version="1.0" encoding="UTF-8"?>
<svg id="Layer_1" data-name="Layer 1" xmlns="http://www.w3.org/2000/svg" viewBox="0 0 22.03 42.89">
  <defs>
    <style>
      .cls-1 {
        fill: #8cc6cc;
      }

      .cls-2 {
        fill: #fff;
      }

      .cls-3 {
        fill: none;
        stroke: #8cc6cc;
        stroke-miterlimit: 10;
        stroke-width: .54px;
      }

      .cls-4 {
        fill: #39939b;
      }

      .cls-5 {
        fill: #d8363f;
      }
    </style>
  </defs>
  <path class="cls-5" d="M14.27,22.35c-.44-.13-.75-.53-.78-.99-.02-.46.25-.89.67-1.06,2.99-1.22,4.92-4.01,4.92-7.11,0-4.26-3.62-7.73-8.07-7.73S2.95,8.93,2.95,13.19c0,3.1,1.93,5.89,4.92,7.11.43.17.7.6.67,1.06-.02.46-.33.86-.78.99-4.64,1.37-7.76,5.4-7.76,10.04,0,5.79,4.94,10.5,11.02,10.5s11.02-4.71,11.02-10.5c0-4.63-3.12-8.67-7.76-10.04Z"/>
  <g>
    <path class="cls-1" d="M8.65,4.96h4.72c.25,0,.45.2.45.45v2.46h-5.62v-2.46c0-.25.2-.45.45-.45Z"/>
    <line class="cls-3" x1="11.02" y1="2.74" x2="11.02" y2="4.96"/>
    <ellipse class="cls-4" cx="11.02" cy="1.58" rx="1.68" ry="1.58"/>
    <rect class="cls-4" x="5.98" y="5.78" width="10.07" height="9.49" rx=".45" ry=".45"/>
    <ellipse class="cls-1" cx="8.72" cy="8.93" rx="1.12" ry="1.05"/>
    <ellipse class="cls-1" cx="13.31" cy="8.93" rx="1.12" ry="1.05"/>
    <rect class="cls-1" x="8.22" y="11.98" width="5.59" height="1.05" rx=".45" ry=".45"/>
  </g>
  <g>
    <path class="cls-2" d="M7.27,36.58c-1.01,0-1.77-.24-2.27-.73s-.76-1.22-.76-2.22.28-1.66.84-2.13,1.41-.7,2.53-.7h2.37l.13,1.92h-2.49c-.38,0-.66.08-.85.23s-.28.38-.28.68.12.54.36.69.6.23,1.07.23c.66,0,1.16-.08,1.49-.23s.49-.39.49-.72l.19,1.39c-.04.36-.2.66-.48.9s-.64.41-1.05.52-.85.17-1.29.17ZM9.9,36.45v-6.04c0-.44-.15-.78-.44-1.02s-.7-.36-1.24-.36c-.35,0-.7.06-1.05.17s-.65.28-.92.49l-1.55-1.53c.38-.43.87-.77,1.49-1.01s1.31-.36,2.06-.36c1.25,0,2.21.31,2.89.93s1.02,1.49,1.02,2.62v6.13h-2.27Z"/>
    <path class="cls-2" d="M13.84,28.6v-1.82h2.68v1.82h-2.68ZM13.84,36.45v-6.9h2.68v6.9h-2.68Z"/>
  </g>
</svg>